<svg xmlns="http://www.w3.org/2000/svg" version="1.1" xmlns:xlink="http://www.w3.org/1999/xlink" xmlns:svgjs="http://svgjs.dev/svgjs" width="1920" height="100" preserveAspectRatio="none" viewBox="0 0 1920 100"><g mask="url(&quot;#SvgjsMask1282&quot;)" fill="none"><rect width="1920" height="100" x="0" y="0" fill="url(&quot;#SvgjsLinearGradient1283&quot;)"></rect><path d="M 0,36 C 76.8,32.8 230.4,18 384,20 C 537.6,22 614.4,49.8 768,46 C 921.6,42.2 998.4,1.6 1152,1 C 1305.6,0.4 1382.4,39 1536,43 C 1689.6,47 1843.2,25.4 1920,21L1920 100L0 100z" fill="#184a7e"></path><path d="M 0,53 C 55,61 165,90 275,93 C 385,96 440,67 550,68 C 660,69 715,100.4 825,98 C 935,95.6 990,55.6 1100,56 C 1210,56.4 1265,98.6 1375,100 C 1485,101.4 1541,65.4 1650,63 C 1759,60.6 1866,83 1920,88L1920 100L0 100z" fill="#2264ab"></path></g><defs><mask id="SvgjsMask1282"><rect width="1920" height="100" fill="#ffffff"></rect></mask><linearGradient x1="23.7%" y1="-455%" x2="76.3%" y2="555%" gradientUnits="userSpaceOnUse" id="SvgjsLinearGradient1283"><stop stop-color="#0e2a47" offset="0"></stop><stop stop-color="rgba(0, 53, 121, 1)" offset="1"></stop></linearGradient></defs></svg>